<svg width="32" height="28" viewBox="0 0 32 28" fill="none" xmlns="http://www.w3.org/2000/svg">
<path d="M26.1868 18.7586H11.2119C10.823 18.7586 10.4785 18.5011 10.3651 18.1234L6.29243 4.63797C5.78253 2.94957 4.22696 1.7944 2.46325 1.7944H0.885828C0.396851 1.7944 0 1.39245 0 0.897198C0 0.401945 0.396851 0 0.885828 0H6.09007C6.47894 0 6.82353 0.257496 6.93691 0.635217L11.0096 14.1207C11.5195 15.8091 13.075 16.9642 14.8387 16.9642H22.9285C24.5455 16.9642 26.0035 15.9906 26.6231 14.4971L27.4861 12.417C28.5789 9.78303 26.6431 6.8842 23.7914 6.8842H15.9989C15.5091 6.8842 15.1131 6.48226 15.1131 5.987C15.1131 5.49175 15.5091 5.08981 15.9989 5.08981H31.1138C31.4106 5.08981 31.6869 5.23964 31.8517 5.49085C32.0165 5.74117 32.0457 6.05788 31.9305 6.33422L27.0036 18.2086C26.8654 18.5424 26.5429 18.7586 26.1868 18.7586Z" fill="#F9F7ED"/>
<path d="M11.0349 27.0345C9.20987 27.0345 7.72412 25.6736 7.72412 24C7.72412 22.3273 9.20987 20.9655 11.0349 20.9655C12.86 20.9655 14.3448 22.3264 14.3448 24C14.3448 25.6736 12.86 27.0345 11.0349 27.0345ZM11.0349 22.7226C10.2662 22.7226 9.64122 23.2954 9.64122 24C9.64122 24.7046 10.2662 25.2774 11.0349 25.2774C11.8027 25.2774 12.4277 24.7046 12.4277 24C12.4277 23.2954 11.8027 22.7226 11.0349 22.7226Z" fill="#F9F7ED"/>
<path d="M25.6546 27.0345C23.9817 27.0345 22.6206 25.6736 22.6206 24C22.6206 22.3273 23.9817 20.9655 25.6546 20.9655C27.3276 20.9655 28.6896 22.3264 28.6896 24C28.6896 25.6736 27.3276 27.0345 25.6546 27.0345ZM25.6546 22.7226C24.9508 22.7226 24.3779 23.2954 24.3779 24C24.3779 24.7046 24.9508 25.2774 25.6546 25.2774C26.3593 25.2774 26.9322 24.7046 26.9322 24C26.9322 23.2954 26.3593 22.7226 25.6546 22.7226Z" fill="#F9F7ED"/>
</svg>
